/* XPM */
static char *cea13236ba434baeb4b619a4d7bee21cmzdQRlbHZUYuMoyX[] = {
/* columns rows colors chars-per-pixel */
"32 32 9 1 ",
"  c black",
". c #060606",
"X c #89572E",
"o c #D7A039",
"O c #F8D91F",
"+ c #F8F800",
"@ c #F8D821",
"# c #F8D825",
"$ c #FDFFC7",
/* pixels */
"                                ",
"                                ",
"            XXXXXXXX            ",
"            XXXXXXXX            ",
"      ..XXXX########@@oo        ",
"      ..XXXX#O####@@@@oo        ",
"        XX##++$$$$++@@oo        ",
"        XX#O++$$$$++@@oo        ",
"      XX##++$$++##  ++@@oo      ",
"      XX#O++$$++@@  ++@@oo      ",
"      XX#@++$$++@@  ++@@oo      ",
"      XX#@++$$++@@  ++@@oo      ",
"      XX#@++$$++@@  ++@@oo      ",
"      XX#@++$$++@@  ++@@oo      ",
"      XX#@++$$++@@  ++@@oo      ",
"      XX#@++$$++@@  ++@@oo      ",
"      XX#@++$$++@@  ++@@oo      ",
"      XX#@++$$++@@  ++@@oo      ",
"      XX#@++$$++@@  ++@@oo      ",
"      XX#@++$$++@@  ++@@oo      ",
"      XX#@++$$#@@@  ++@@oo      ",
"      XX#@++$$#@@@  ++@@oo      ",
"      XX#@++$$#@@@  ++@@oo      ",
"      XX#@++$$#@@@  ++@@oo      ",
"        @@++++    ++@@oo..      ",
"        @@++++    ++@@oo..      ",
"        @@@@@@@@@@@@oooo..      ",
"        @@@@@@@@@@@@oooo..      ",
"            oooooooo            ",
"            oooooooo            ",
"                                ",
"                                "
};
