/* XPM */
static char *_08607e37d9f4ac3e422442dd1b18ab1tIWKGZ4HMbzVzKR2[] = {
/* columns rows colors chars-per-pixel */
"32 32 74 1 ",
"  c black",
". c #2B1F11",
"X c #173419",
"o c #19361A",
"O c #1B3B1D",
"+ c #2E2213",
"@ c #332615",
"# c #392313",
"$ c #362816",
"% c #21391D",
"& c #2A391B",
"* c #1E3E20",
"= c #203F20",
"- c #610000",
"; c #4D2312",
": c #502312",
"> c #6C200E",
", c #732312",
"< c #7C2512",
"1 c #742F1D",
"2 c #593A2C",
"3 c #473F31",
"4 c #5F3E30",
"5 c #1D401F",
"6 c #27441F",
"7 c #2E411B",
"8 c #32471E",
"9 c #33491F",
"0 c #1E4221",
"q c #214422",
"w c #2E4522",
"e c #244825",
"r c #324622",
"t c #3F4220",
"y c #344A24",
"u c #454C1C",
"i c #7C4F0C",
"p c #7E510F",
"a c #464C25",
"s c #494D26",
"d c #495027",
"f c #5B5329",
"g c #4D4435",
"h c #534B3B",
"j c #7E542A",
"k c #654735",
"l c #5C5242",
"z c #5B5344",
"x c #5D5444",
"c c #605747",
"v c #615949",
"b c #696350",
"n c #812712",
"m c #822813",
"M c #852913",
"N c #822815",
"B c #872914",
"V c #882914",
"C c #923B24",
"Z c #8D5A10",
"A c #905E11",
"S c #805529",
"D c #85592B",
"F c #8E5F2F",
"G c #895E30",
"H c #8C5F30",
"J c #8D6332",
"K c #86827A",
"L c #86847C",
"P c #88837B",
"I c #88837C",
"U c #88847C",
"Y c #808F80",
"T c #919F92",
/* pixels */
"                                ",
"                                ",
"   YYLUKUIUPUUUUIPKU            ",
"  TOO%%X%o%++@+@++.@z           ",
"  To0eqO0O0O00Oqq$+@v           ",
"  TX00qrw&rrq0o0O$+@x           ",
"  TX00yDjSFGfyo0*$+@v           ",
"  TO00qtssaHJd50O@+$b           ",
"  TO000o0O0wwq0qo@+$v   -       ",
"  To000O0o00q0O0=@;<<mBBn,B-    ",
"  TX0q0OOoOqe0o0q$;<<<NBM>MC-   ",
"  ToO00OOo0500O0O$:<<M<VM,B-    ",
"  TO*00O0qO00000O$#;k2221<4     ",
"  TOq00o5O0000qqO@+$c   -       ",
"  TO000o0O00q87qq@+@x           ",
"  To0qqO0o00uZp6q$+@x           ",
"  To000OOO05uAi6O$+@l           ",
"  TO000O0q00q970*@.@g           ",
"  TO0O0o0OO0qq0qO@+$h           ",
"  TO000O0O0000O0O@+@h           ",
"  TX000OOo0000O0q$+@h           ",
"  To000OOo0500X0O$++h           ",
"  TXO00O500000O0*$+@h           ",
"  TO0*0Oqq00qq00o@+$h           ",
"  TO000o0O0000O0O@+$g           ",
"  To0q0O0OO000O0q$+@3           ",
"  To00qO5XO000o0*$+@h           ",
"                                ",
"                                ",
"                                ",
"                                ",
"                                "
};
