/* XPM */
static char *_b6bf4ef59bd4294c0a29d0aeec6bb51JZl4Um0VbUYPnz4D[] = {
/* columns rows colors chars-per-pixel */
"32 32 236 2 ",
"   c #010100",
".  c #0C0100",
"X  c #060D01",
"o  c #0C0C01",
"O  c #04020C",
"+  c #0D060C",
"@  c #040A09",
"#  c #140100",
"$  c #1D0100",
"%  c #130C00",
"&  c #1A0708",
"*  c #0C1206",
"=  c #161407",
"-  c #090816",
";  c #150613",
":  c #0D1718",
">  c #181417",
",  c #230000",
"<  c #260505",
"1  c #220A00",
"2  c #320300",
"3  c #3F0903",
"4  c #2A1506",
"5  c #2A1413",
"6  c #32161C",
"7  c #1F2115",
"8  c #20270D",
"9  c #1B1027",
"0  c #430600",
"q  c #431407",
"w  c #7D5B2B",
"e  c #79702B",
"r  c #766B36",
"t  c #7C733D",
"y  c #7E525A",
"u  c #7C6A4A",
"i  c #777546",
"p  c #7C7757",
"a  c #BA3B1A",
"s  c #8D3D3D",
"d  c #AF3729",
"f  c #BA3927",
"g  c #BA3E34",
"h  c #C82C1B",
"j  c #CB3A17",
"k  c #D23818",
"l  c #C72E26",
"z  c #CA3725",
"x  c #CD3C2D",
"c  c #D53926",
"v  c #D33E2A",
"b  c #DA3C2D",
"n  c #C63B32",
"m  c #DA3E32",
"M  c #AD4C19",
"N  c #B74C15",
"B  c #A5561A",
"V  c #AB551B",
"C  c #B8561E",
"Z  c #845B2C",
"A  c #975B26",
"S  c #A94629",
"D  c #BD4A29",
"F  c #AF5F2A",
"G  c #B95624",
"H  c #AC473B",
"J  c #B64537",
"K  c #BA493B",
"L  c #A95738",
"P  c #BD543A",
"I  c #B95B3A",
"U  c #8C682D",
"Y  c #996627",
"T  c #85722E",
"R  c #9B732C",
"E  c #8B6D3B",
"W  c #976937",
"Q  c #877A39",
"!  c #957635",
"~  c #92763A",
"^  c #A8672A",
"/  c #B46428",
"(  c #AE752E",
")  c #A66C37",
"_  c #AC6E3B",
"`  c #B46E34",
"'  c #A87636",
"]  c #B97538",
"[  c #C94516",
"{  c #D8411E",
"}  c #C94728",
"|  c #D54328",
" . c #C65629",
".. c #D95C2D",
"X. c #C94638",
"o. c #D54336",
"O. c #D74637",
"+. c #C95238",
"@. c #D35436",
"#. c #E64D2D",
"$. c #E24737",
"%. c #EC523E",
"&. c #C9693E",
"*. c #965056",
"=. c #AE4F4E",
"-. c #B54C45",
";. c #BB5549",
":. c #897848",
">. c #977547",
",. c #857A55",
"<. c #957555",
"1. c #A96B42",
"2. c #A27541",
"3. c #AD7345",
"4. c #B97949",
"5. c #A87A58",
"6. c #935C61",
"7. c #97786E",
"8. c #B27067",
"9. c #C84A41",
"0. c #D34F45",
"q. c #C65749",
"w. c #D75A48",
"e. c #E95B44",
"r. c #CB7946",
"t. c #CE7248",
"y. c #D67C49",
"u. c #C96357",
"i. c #C47956",
"p. c #E2734B",
"a. c #EF7B58",
"s. c #C8706A",
"d. c #D67E6B",
"f. c #E27E75",
"g. c #898139",
"h. c #8E864E",
"j. c #988547",
"k. c #84825A",
"l. c #9A8357",
"z. c #A48646",
"x. c #B7894A",
"c. c #A78959",
"v. c #B88259",
"b. c #A7915B",
"n. c #B2955A",
"m. c #8C8161",
"M. c #998966",
"N. c #929367",
"B. c #A8886E",
"V. c #B78964",
"C. c #A79668",
"Z. c #B8966D",
"A. c #B88B76",
"S. c #A69679",
"D. c #CC8447",
"F. c #D7854B",
"G. c #C68658",
"H. c #D88C58",
"J. c #DC935C",
"K. c #C68965",
"L. c #D68669",
"P. c #CE9868",
"I. c #D9986E",
"U. c #DB8A79",
"Y. c #FF8764",
"T. c #FF9663",
"R. c #F49673",
"E. c #C3A67B",
"W. c #DCA57B",
"Q. c #F2AD74",
"!. c #F7A679",
"~. c #B2A88B",
"^. c #C69885",
"/. c #D69B82",
"(. c #C9A783",
"). c #D8AC83",
"_. c #C5B699",
"`. c #D2B296",
"'. c #E8A98B",
"]. c #FAAA86",
"[. c #E8B384",
"{. c #FCB884",
"}. c #E9AA99",
"|. c #FCA899",
" X c #E8BB93",
".X c #FCB796",
"XX c #C9B8A4",
"oX c #DBBAA6",
"OX c #FEAEA6",
"+X c #E2B9A3",
"@X c #FFB5A6",
"#X c #FBBBAB",
"$X c #FFB7B5",
"%X c #DDC598",
"&X c #EDC28D",
"*X c #EAC699",
"=X c #F6C795",
"-X c #FEC393",
";X c #FFC69D",
":X c #F3CB9B",
">X c #FCCC9C",
",X c #F8D19D",
"<X c #C8C9A9",
"1X c #D7C4AC",
"2X c #D5D7BA",
"3X c #E6CAA8",
"4X c #F8C8A4",
"5X c #FCCCA4",
"6X c #FDCCAC",
"7X c #E5D3A9",
"8X c #F5D4A3",
"9X c #FDD2A3",
"0X c #FBD6AB",
"qX c #F8D9A9",
"wX c #EACAB9",
"eX c #FFCBB3",
"rX c #F8C9B9",
"tX c #E9DAB9",
"yX c #FFDCB4",
"uX c #FBD7B8",
"iX c #FDE2AB",
"pX c #F9E4B9",
"aX c #DBB9C3",
"sX c #DDC9C0",
"dX c #E8CDC3",
"fX c #FFCBC9",
"gX c #E8D6C7",
"hX c #F6D6C6",
"jX c #FEDBC3",
"kX c #E2DBD1",
"lX c #FFDCD0",
"zX c #E8E4C7",
"xX c #FDE7C9",
"cX c #FFF7CD",
"vX c #FFE3D4",
"bX c #FFDEE0",
/* pixels */
"            fX$X|.q.0.o.x m l b h m x d q.|.6XxXjX              ",
"@ : - . 5 , fXs.-.g 0.o.z o.b b c o.O.+.J ;.8.}.q $ 5 # . ; +   ",
"  + . 5 ,   s.H +.X.o.l h b O.o.o.X.n X.J q.-.=.s 8.6.y aX& +   ",
"= . & # 2 }.L q.+.+.} } O.} } X.d K K -.J q.-.=.8.*.6.7.aX& ;   ",
"  o .     K.I.t.t.p.p.p.a.a.R.]..X.X|.eX@X@XOX@X$XfXfXbX& ; >   ",
"        `.v.i.J.y.F.y.t.y.!..X4X6XuX6XuXeXeXeX#XrX2 $ # .       ",
"o     ~.V.W.Q.Q.F.F.Q.Q.{.9X;X X%XpXxXcX3X3XuXtX3XxX1X  kX7     ",
".   # jXV.W.-X{.J.D.{.>X-X9X4XyXqX%X%XcXpX7X7X7X7XtXtX1XkX  =   ",
"#   hX^.5.W.-X{.J.F.r.4.K.[.4XyX*X0X8X8X0X).c.Z. XxX+XwXhXdXdX  ",
"6   $ rX^.K..X-XJ.H.G.G.K.).4X0XpX5X&X>X>XP.v.W.6X'.jXrXjXhXwX  ",
".     B.^.A.5.K.[.-X>X>X5X5X4X*X:X=X[.P.G.G.i.i.i.K.8.A.7.lX$   ",
">   5 sX~.oX(.5.:X>X9X9X9X0X0X0X:X0X>XI.G.].].L.L.'.K.^.oX4 .   ",
"-       o . 4 4 qX8X8X:X,X8X0X8XqX:X>X>X.X>X5X.X0X6XuX$ %       ",
"O   @ X o % % % pXpXqX8X8X,X:X&X0X=X>X0X9X>X9X5X0XtX  %   = :   ",
"O     =   . _.M.M.l.>.W W 3.4.G.3.1.3.2.W E :.:.S..   X *   :   ",
"+       % XX,.:.:.>.2.) ) ) _ _ 3.3._ W W E :.h.,.p ~.X X @     ",
"@ @   8 <XN.:.e T ! R Y Y ' ' ^ ^ _ _ A Y ' 2.~ :.i N.2XX   :   ",
"      k.i h.Q z.R ' ( ^ ^ ` ` ^ ` ^ ` ^ ^ ` ' z.j.:.i k.<XX     ",
"1 XX_.:.:.j.! ' ^ ^ / C C  . .G G G / V B ` ^ R U b.:.,.~.2XkX  ",
"<.<.<.:.j.~ ! ' ] / M C  .} } @. . .N C C V ^ ) U j.:.M.m.p 7.  ",
"Z.b.c.c.n.n.x.x.` V  .Y.Y.e.v v | [ [ T.T.N C ^ ' U b.l.M.S._.  ",
"%XiXiXqX&XiXx.A F M  .a.Y.e.z k k { j Y.T.[ C V ` P.9X0X3X  XX  ",
"7X*X%X%XiX=X-X>X&.D a z | c v $.| #.k k j [ .. .{.{.;X4XjX  dX  ",
"7XtX3XyX5X;XR.I } } | | | v v x z | O.c k #.| }  .!.5XeXwXdXgX  ",
"gX1X3XuX6Xd.q.f x $.c m m x O.n f w.o.o.h #.c j } P U.#XrXgXkX  ",
"gX  wX+X#Xd.K X.o.$.$.l n 9.d u.-.;.9.X.x c %.v f P L.eXrXXX    ",
"      vXvX|.-.q.f e.X.g q.f.OXrXfXOXs.;.X.O.z O.@.P '.0 # =     ",
"o   . 1 , /.L S P J H u.U.0 3 , , 2   d.H K w.D S I I.2 1 % X   ",
"    = % pXE.Z 2.A 1.'.  , $ < # & 5 , 2 @Xi.L I L 3.V.(.xX% o   ",
"%   zX,.:.r ~ ~ n.w # $ # # + O > . # # 2 V.1.3.) U >.E C.tX    ",
"#   u h.t e Q j.T C.4 # # + 9 O O + 5 # 4 <.E z.~ j.j.t ,.M.XX  ",
"A.7.<.l.Q j.e g.g.r % # . ; - - - -   4 # :.j.Q T g.Q h.r ,.M.S."
};
