/* XPM */
static char *_3b0e0d407ff4f5e82df39909b9927f2HaUTWDAepihIJBV1[] = {
/* columns rows colors chars-per-pixel */
"32 32 244 2 ",
"   c #010100",
".  c #0B0101",
"X  c #040A01",
"o  c #0B0B01",
"O  c #03000A",
"+  c #0C050B",
"@  c #060C0C",
"#  c #130100",
"$  c #1B0200",
"%  c #130A01",
"&  c #1B0908",
"*  c #09140A",
"=  c #191705",
"-  c #09001A",
";  c #1B0C1A",
":  c #0A131F",
">  c #191419",
",  c #220001",
"<  c #2A0000",
"1  c #250B02",
"2  c #270805",
"3  c #320301",
"4  c #3B0800",
"5  c #2D1301",
"6  c #271908",
"7  c #33150C",
"8  c #241917",
"9  c #132210",
"0  c #2B2403",
"q  c #180B24",
"w  c #430601",
"e  c #705D3C",
"r  c #776728",
"t  c #7D732F",
"y  c #796A38",
"u  c #7E7231",
"i  c #776B47",
"p  c #74794C",
"a  c #B72E15",
"s  c #B9371B",
"d  c #B03327",
"f  c #BC3B31",
"g  c #CA2E19",
"h  c #CB3A17",
"j  c #D2391C",
"k  c #CA3727",
"l  c #CC3E24",
"z  c #D33E23",
"x  c #D93E25",
"c  c #D43B2A",
"v  c #C33D32",
"b  c #A2490F",
"n  c #AA4D1B",
"m  c #B74A1B",
"M  c #AC531B",
"N  c #B8541D",
"B  c #985C2B",
"V  c #B74A29",
"C  c #BC5324",
"Z  c #B95A2C",
"A  c #AF4A3F",
"S  c #BC4938",
"D  c #A75339",
"F  c #B8533B",
"G  c #8A6A2A",
"H  c #9C662A",
"J  c #827B2E",
"K  c #9C762E",
"L  c #886735",
"P  c #966737",
"I  c #877737",
"U  c #987736",
"Y  c #AB6528",
"T  c #A16A2D",
"R  c #B3662A",
"E  c #A66936",
"W  c #B46937",
"Q  c #A77636",
"!  c #AA7239",
"~  c #B27832",
"^  c #C7441B",
"/  c #D3401D",
"(  c #C94829",
")  c #D34224",
"_  c #DA4324",
"`  c #D54827",
"'  c #D44429",
"]  c #DA422C",
"[  c #CB542A",
"{  c #D5572D",
"}  c #C54635",
"|  c #D54334",
" . c #D54938",
".. c #C8573C",
"X. c #E34934",
"o. c #C86435",
"O. c #EB613D",
"+. c #994B4F",
"@. c #94545A",
"#. c #A84E4D",
"$. c #B84C45",
"%. c #BD5848",
"&. c #B85B5C",
"*. c #806F42",
"=. c #897845",
"-. c #987847",
";. c #8E7E53",
":. c #877D58",
">. c #967954",
",. c #AF6A4F",
"<. c #A77743",
"1. c #AC7B44",
"2. c #B57542",
"3. c #96666C",
"4. c #AD6F67",
"5. c #C44C41",
"6. c #CA4F45",
"7. c #DC4F43",
"8. c #C75547",
"9. c #CE574C",
"0. c #CB644B",
"q. c #CA7B49",
"w. c #D57A46",
"e. c #DC7D4A",
"r. c #D16A5F",
"t. c #CD7954",
"y. c #D17752",
"u. c #EA6848",
"i. c #E8744C",
"p. c #E67850",
"a. c #C7766B",
"s. c #D67A72",
"d. c #7E8250",
"f. c #90833C",
"g. c #998446",
"h. c #928A4A",
"j. c #8A855D",
"k. c #938654",
"l. c #A6874B",
"z. c #B7854E",
"x. c #A6885A",
"c. c #B78658",
"v. c #A89556",
"b. c #978465",
"n. c #9A8E79",
"m. c #A88A64",
"M. c #BA8765",
"N. c #B59963",
"B. c #A78976",
"V. c #B38F71",
"C. c #A79675",
"Z. c #B99775",
"A. c #CD884F",
"S. c #C98559",
"D. c #C68C5D",
"F. c #D68752",
"G. c #DC9059",
"H. c #E58B57",
"J. c #FD8358",
"K. c #D98968",
"L. c #C8906B",
"P. c #C98D7A",
"I. c #D98975",
"U. c #D69B77",
"Y. c #FF8862",
"T. c #FF966B",
"R. c #EA9573",
"E. c #D2A677",
"W. c #EDA870",
"Q. c #F6A875",
"!. c #F7B37B",
"~. c #A99683",
"^. c #B19182",
"/. c #B2A885",
"(. c #B6B197",
"). c #C79C87",
"_. c #F09B84",
"`. c #F89F96",
"'. c #C4A782",
"]. c #D7B58A",
"[. c #D8AE92",
"{. c #E4AA84",
"}. c #F7A686",
"|. c #E5B687",
" X c #F9B987",
".X c #FEBC8C",
"XX c #ECA595",
"oX c #F3B497",
"OX c #F8B596",
"+X c #CEBCA4",
"@X c #D8B7A9",
"#X c #D3B9B9",
"$X c #F5ABA4",
"%X c #E6B4AA",
"&X c #FBB8A7",
"*X c #FFBDB6",
"=X c #E5C98E",
"-X c #FEC38A",
";X c #E8C79B",
":X c #FEC59C",
">X c #F6C898",
",X c #FDCB9C",
"<X c #EBD39B",
"1X c #F4D39B",
"2X c #FFD29F",
"3X c #C8C7A9",
"4X c #DBC8AB",
"5X c #C9D2A9",
"6X c #CDC3B7",
"7X c #D9C4B6",
"8X c #DBD6B9",
"9X c #E6C8A6",
"0X c #ECCBA3",
"qX c #F5CCA3",
"wX c #FCC4AC",
"eX c #FBCAA8",
"rX c #ECD1A4",
"tX c #E7D3AB",
"yX c #F5D4A4",
"uX c #FDD4A3",
"iX c #F4D4AA",
"pX c #F3DAAC",
"aX c #FDD9A8",
"sX c #FDDBAC",
"dX c #E8C9B6",
"fX c #FFC3B6",
"gX c #F4CEB5",
"hX c #FDCDB4",
"jX c #EAD4B6",
"kX c #FDD4B2",
"lX c #FCDDB5",
"zX c #F5D7BB",
"xX c #FED9BB",
"cX c #FFE1A8",
"vX c #FBE5B9",
"bX c #E7C4C9",
"nX c #FFCDCB",
"mX c #E7D8C8",
"MX c #FFDCC5",
"NX c #F9D8C8",
"BX c #FED6D4",
"VX c #FFE4C5",
"CX c #FFF1CB",
"ZX c #F4F0D8",
/* pixels */
"                                                              B.",
"  . & + X *   8   7X$ & X 9 @ @ X X mXn.~.7X7X  6X  X X = . +Xb.",
"  8 # # > * . . 7XNXNX7   *   X X = 5X:.b.  jX  mX6X= . . 8XC.:.",
"  . #XbX. .   mX4XNXZ.[.#     o X 5X/.:.C.9XzXgXNXdX$ 5   b.i y ",
"  # 3.3.  &   4XzXgX4.P.5 . 8 o 8Xj.:.=.m.iX;XeXwXwX3 3 E.k.=.k.",
"  2 @.4.dX$ jXtXrXeXI.a.MXZX. (.:.y ;.=.N.uXaX:XI.I.}.U.c.-.=.I ",
"  2 @.+.  , VX9XvX>XR._.wXzX1 i ;.I l.l.P D..XR.V ..%.D E U g.I ",
"  3 #.&.*XhX9XpX=XaXt.K.wX9Xb.b.-.-.G H ! Y .Xm ..a ..V E 1.I J ",
"MX%X&.#.&XwX0XrXl.|.y.y.eXkXy >.L 1.Q E Y b C [ a u.( V W 1.g.I ",
"hX,.$.%.XXhXvX;XN.c.y.}.:X>X-.-.<.T Y R N N { / ] X.v ..W B -.I ",
"OX0.6.$.&XxX;XiX].c.t. X:X>X-.P 1.W R M m ^ h _ X.a 7.S ,.L.x.*.",
"F 8.f d wXkX[.CXrX;XS.K.>XuXP P B W n N T.T.h _ k v 9.%.XX4 # . ",
"V } } 5.wXMXVXCXrXsXL.D.>XcXU E B W n m T.T.j x | } r.#.3 , # 6 ",
") l k } OXhXVX9XtXrX|.oX1X1XQ ! 2.W Z m ^ / j ] } S s.    2 % . ",
"_ z c } &XMXxXzXjXrXqXsX<X=X<.! 2.Y Z [ ` _ X.k 6.8.$X3 $ & . > ",
"x g ] } }.eX9XzXjXlXqXyX<X<X1.2.H 2.Z [ ` h ] | } $.fX< # ; O O ",
"j z x ( }.:X|.lXkXiX0XiX<X=Xz.E T Y C { ) j X.l s 0.fX< # > q - ",
"z x X.{ T.:X,X1XqXqXiXlXsX1Xz.! Q W C ( ) j z )  .S $Xw # + q - ",
"X.x x ' p.Q.2X>X{.{.qXaXyXyX<.T Q W C ^ O.O.j z c 6.r.w , & + ; ",
"k g g ` i.e.!. XD.D.>XqX<X1XP H H Y M ( Y.Y.) ) c k 8.I.< # # # ",
"| | g ' i.e.Q.,Xq.S.,XuXyXuXP Q H Y M N J.J.^ ) X.k } %.  1 $ $ ",
" .7.c l i.H.Q. XA.A.,XuXyXsX-.<.K ~ Y M o.[ s ' g X. .F {.$ 1 & ",
"5.f |  .i.e.F.q.F.F..X>XyXpX>.-.U Q Y Y M n V ( c c 7.F ,.L v.y ",
"`.8.6...o.w.F.G.G.G. X>XpXvXb.-.U K T ~ R Y o.} |  .f F E <.r h.",
"*Xr.A %.q.F.!.-XQ.,Xc.>.0 % b.;.u U K Q Q H .X..} v S F <.L f.J ",
"nXnXs.#.S.S.W.-X,X{.M.'.% 0 (.p h.t G G l.D. X}.8.5.%.,.P -.f.J ",
"BX3 BXXXM.c.E.|.U.M.V.4X. X o 3Xd.h.g.I v.aX|.eXI.s.`.P.m.y u v.",
"  $ $ 4 gX[.m.x.4.).^.~.o X o X 5Xp I I N.<XvXqXwX$X  3   k.y r ",
"  . $ $ 1   4XdX).@X^.#XX X o o = p ;.>.x.<X;XlXMX%X  5 # j.k.k.",
"  > . # % 6 8X$   ,   8   @ X   X ZX/.=.m.vXtX9XdXNX  . =   e b.",
"  : O & % . = % , , # 8   @ +   X o +X>.m.pXtXjX@X    . X .   m.",
"  : O . . o . . $ 2 # > O O + + X o $ >.Z.;XVX4XmXmX.   X % 1 B."
};
