/* XPM */
static char *_446ff70e23e406be58f93025170a688PwWWKCYrzaHL6PJ2[] = {
/* columns rows colors chars-per-pixel */
"32 32 243 2 ",
"   c #010100",
".  c #0A0201",
"X  c #050A07",
"o  c #0A0B02",
"O  c #03010A",
"+  c #130201",
"@  c #1B0301",
"#  c #120A01",
"$  c #1B0904",
"%  c #0F1207",
"&  c #1B1A07",
"*  c #010314",
"=  c #0C0617",
"-  c #150614",
";  c #191718",
":  c #220201",
">  c #2E0000",
",  c #250B04",
"<  c #330301",
"1  c #370403",
"2  c #340A02",
"3  c #3A0D03",
"4  c #251400",
"5  c #211413",
"6  c #32181A",
"7  c #3B2109",
"8  c #060626",
"9  c #091220",
"0  c #151625",
"q  c #2F1D2B",
"w  c #162026",
"e  c #77782A",
"r  c #726730",
"t  c #796C37",
"y  c #7C7B39",
"u  c #777844",
"i  c #BD371E",
"p  c #B33627",
"a  c #BC392C",
"s  c #C4271B",
"d  c #D22A18",
"f  c #CA3B19",
"g  c #D33719",
"h  c #C93827",
"j  c #D73824",
"k  c #D63E2D",
"l  c #DA3C2C",
"z  c #CB3D31",
"x  c #E23B2B",
"c  c #AC4C1B",
"v  c #B74B1A",
"b  c #AA581D",
"n  c #B4531D",
"m  c #A4621F",
"M  c #9C5C25",
"N  c #994C39",
"B  c #9A5033",
"V  c #BA462A",
"C  c #A95423",
"Z  c #B75926",
"A  c #A94B37",
"S  c #B74837",
"D  c #AD5E35",
"F  c #BC5538",
"G  c #8C6A2C",
"H  c #986B29",
"J  c #8B752A",
"K  c #886F34",
"L  c #926C33",
"P  c #986A37",
"I  c #877437",
"U  c #9A7535",
"Y  c #A7682A",
"T  c #A6732D",
"R  c #A76835",
"E  c #B66A34",
"W  c #B96B37",
"Q  c #A67735",
"!  c #AB733B",
"~  c #B67236",
"^  c #C74319",
"/  c #D6431D",
"(  c #C54729",
")  c #C4452E",
"_  c #C84A2A",
"`  c #DA4227",
"'  c #D3452C",
"]  c #D84529",
"[  c #C8562A",
"{  c #CB4332",
"}  c #C74936",
"|  c #C34C3A",
" . c #D44333",
".. c #DB4B3B",
"X. c #C85536",
"o. c #D75B37",
"O. c #E1492A",
"+. c #E44839",
"@. c #EE5A3B",
"#. c #C46539",
"$. c #924C43",
"%. c #A85F4D",
"&. c #B85848",
"*. c #B65F58",
"=. c #887949",
"-. c #987742",
";. c #89605D",
":. c #9A635D",
">. c #867B58",
",. c #937A55",
"<. c #AD6B41",
"1. c #BA6647",
"2. c #A47546",
"3. c #AC7B43",
"4. c #BA6B55",
"5. c #966863",
"6. c #A97C63",
"7. c #BA7767",
"8. c #C64D43",
"9. c #D44D45",
"0. c #C25644",
"q. c #C35B45",
"w. c #C35B49",
"e. c #D45446",
"r. c #C25B51",
"t. c #EE5C50",
"y. c #CB7749",
"u. c #D87445",
"i. c #C7685C",
"p. c #D16357",
"a. c #CB7E57",
"s. c #E1774C",
"d. c #FA7E55",
"f. c #D2786C",
"g. c #83823B",
"h. c #8D823B",
"j. c #938034",
"k. c #A8883E",
"l. c #88834A",
"z. c #98854A",
"x. c #8A855A",
"c. c #948858",
"v. c #919350",
"b. c #AD8748",
"n. c #B7824D",
"m. c #A88658",
"M. c #B48858",
"N. c #AD9458",
"B. c #998A68",
"V. c #908D71",
"C. c #968E79",
"Z. c #B98667",
"A. c #B99468",
"S. c #A79676",
"D. c #AEA271",
"F. c #CA874D",
"G. c #D7834B",
"H. c #C68855",
"J. c #C8915C",
"K. c #D6935B",
"L. c #E2834E",
"P. c #FF825B",
"I. c #C98669",
"U. c #C59466",
"Y. c #D5916B",
"T. c #D88472",
"R. c #C79575",
"E. c #FF8161",
"W. c #FE966B",
"Q. c #EA9577",
"!. c #DAA07A",
"~. c #D9B37E",
"^. c #F9A36C",
"/. c #FCB17C",
"(. c #B99C8C",
"). c #B5AE88",
"_. c #DA8980",
"`. c #C39984",
"'. c #D59C88",
"]. c #EC9E90",
"[. c #CAA483",
"{. c #D1AF8F",
"}. c #D9B79A",
"|. c #E9A18E",
" X c #F8A887",
".X c #E6B88A",
"XX c #FAB988",
"oX c #EFA194",
"OX c #F9A697",
"+X c #EDBC97",
"@X c #FBB994",
"#X c #FFBD9B",
"$X c #C4BFA5",
"%X c #DAB4A6",
"&X c #E5B9A8",
"*X c #FCBAA9",
"=X c #E8BFBB",
"-X c #FFBBB3",
";X c #EAC08F",
":X c #FFC389",
">X c #EAC697",
",X c #EBCB9D",
"<X c #FEC594",
"1X c #F5CB97",
"2X c #FDC39B",
"3X c #F4CC9D",
"4X c #FDCD9D",
"5X c #FDD49F",
"6X c #C9C8A5",
"7X c #DBC6A8",
"8X c #D9C8B6",
"9X c #D5D2B3",
"0X c #EBCBA2",
"qX c #E6C9AA",
"wX c #F4CCA3",
"eX c #FCC6AA",
"rX c #EDD1A5",
"tX c #FCD2A4",
"yX c #F8D7A6",
"uX c #FCD6AA",
"iX c #FCDCAC",
"pX c #E4C7B4",
"aX c #FDC7B3",
"sX c #FFCDBC",
"dX c #E6D4B6",
"fX c #F2D4B6",
"gX c #FEDDB3",
"hX c #F5D4BD",
"jX c #FCD5BC",
"kX c #FCD9B8",
"lX c #FFE0B6",
"zX c #DBD7C6",
"xX c #DFD9D1",
"cX c #E3C2C3",
"vX c #FFCAC6",
"bX c #E9D8C2",
"nX c #FED5C1",
"mX c #FEDCC6",
"MX c #FFD9D8",
"NX c #FEE7CC",
"BX c #FFEED3",
"VX c #FFE4D8",
"CX c #F7F0E0",
/* pixels */
"B.$ . o X   zX  7XkX,XA.,., . %   ; O O - . + , + #     O * 9   ",
"B.  #   .     8XfX0XiXm.,.7Xo . %   ;                 # . X *   ",
">.r     .   bX7XqX0XiXm.=.).        ;                   .   0   ",
"c.c.=.  @   %XmXkX.X>XN.=.x.x.& o ;   # 8XS.pX`.hX}.mX, + 6 .   ",
"y t c.qX    *XaXeXlX>XA.I y u 6X  . + @ (.[.`.Z.Z.Z.[.nX3 : 6   ",
"v.t =.R.'.|.f.I.eX.X5XN.I v.v.=.$X+ 4 @ &X6.Z.!.XXY.I.I.'.VX> MX",
"e h.L P B &.S w.Q.@XH.b.J e I l.>.$X, : +X6.2X@XXX Xa.I.N 7.vXvX",
"g.h.L <.q.S | V F <XM Q k.J j.I =.S.: 2 A.M.<X<XXX/.y.y.1.&.*.-X",
"y K n.B q.z { { ( X.Z ~ T H U J =.B.gXuX3XXXK.K.G.G.y.#.F &.&.OX",
"=.=.2.4.S { t.h ' ( c b m Y Q U -.m.gXtX4X<XJ.F.G.G.L.s.X.| a 8.",
"# 4 : |.S e. .h ] f [ [ b Y T T U -.uXtXtX4XH.F.:X^.L.u.V ) ..{ ",
". @ 3 vXi.S h k ` ` d.d.Z b m H P L tX3XtX4Xn.n.:X^.u.s.( i  . .",
"  + @ : _.w.z  .l O.E.P.[ Z Y Y P P 4X3XtX3XA.U.XX/.G.s.X.f h l ",
"= = + 2 1 f.|  .l j @.@.( Z E T R 2.4XuXuXwX{..X4XtX^.s._ h j x ",
"8 * - , 3 oXw.{ k j g ` ( Z W R ! n.1XuXiX0X,XwX4X2X@XW._ ' j d ",
"8 0 O @ > -XA X.j ` g ] [ Z E Y ! n.;XwXyX0XyXgXgX+X2X X_ ' l x ",
"* = = + 1 aXS ) f / g ] [ Z 1.R R n.yX,XiXyXyXrXqXqXaX X) ..s j ",
"w O + : < oXp.) f O./ ^ [ Z R <.! 3.>X,XiX1X1XiXdXNXmX@XV ' k l ",
"    @ 2 vXf.8.h ] f f ^ v #.W <.! U wXuX;X~.1X,X7XBXsX X| ( { z ",
"& . @ > *.p.a ..j f W.W.v c E M Q L gXuXJ.U.yX,XBXBXmX*XX.} } a ",
"  # 3 |.r.9.i k ` f W.^.n b E M L L uX2XH.H.1X3XBX}.sX*Xp V q.&.",
"l.z.R.4.S 9.s +.+.^ v v Z W ~ ! G -.3X2X XH.J.~.dXqXnX*X0.0.1.OX",
"g.I P 1.| h +.+.' o.Z Z E Y Y Q I -.wXeX XF.n.N.7XNXsX].&.A %.sX",
"e h.3.D | z ..h } X.C Y T H 3.U z.K eXeXa.y.!.N.dXpXaX*XA %.&XVX",
"e e b.R F | a e.S #XR 3.U L U I t D.eX*XQ.a.tX,XdXbX&X-X4.N 2 VX",
"e g.L R A 0.0.S Q.#XU.P z.z.K z.x.#   *XOXI.+XgXdXbX2 MX$.:.+   ",
"y g.I M.I.OXT.T.#XkXuXA.I =.t c.S.o     7.I.uX0XdX8X: =X:.:.@   ",
"v.u =.[.< 1 eXeXeX>XrXB.=.x.c.dX. & + @ '.R.+XqX8XVX@   5.;.$   ",
"u u B.BX7 @ hXhXfXfXqXS.x.).9X  o     @ &X6.jXhXxXxX. + =XcX.   ",
"x.C.bXo . $ 8XdXbXdXBXB.>.6X% o     ; ; + nXjXhX.   o 5 + + q   ",
"V.$X  & o . CX8XbX8X7XS.C.zX  o ; O 0 O $ @ hXpX&     . $ + -   ",
"C.                                                              "
};
