/* XPM */
static char *fc9287eac45f4c03f7844252561c59e5mtV1pyIAYu88i5D8[] = {
/* columns rows colors chars-per-pixel */
"32 32 159 2 ",
"   c black",
".  c #787E2E",
"X  c #737E3D",
"o  c #5D7A4E",
"O  c #5B7A53",
"+  c #DF391C",
"@  c #E63425",
"#  c #E93324",
"$  c #E33825",
"%  c #E13729",
"&  c #E43928",
"*  c #AD5E25",
"=  c #BF5021",
"-  c #B25C26",
";  c #9E6927",
":  c #8B7E2B",
">  c #927A2D",
",  c #AE6227",
"<  c #AE6228",
"1  c #A37836",
"2  c #D04311",
"3  c #CF6616",
"4  c #CF4623",
"5  c #CE4923",
"6  c #D54224",
"7  c #D94124",
"8  c #DC4A21",
"9  c #C25629",
"0  c #DD4C30",
"q  c #C35F32",
"w  c #E74328",
"e  c #E8542B",
"r  c #E54434",
"t  c #EC4435",
"y  c #E34C35",
"u  c #E74A38",
"i  c #E9513A",
"p  c #DB7C36",
"a  c #DF7E3E",
"s  c #E7702F",
"d  c #E67030",
"f  c #E57C33",
"g  c #E37D3A",
"h  c #866742",
"j  c #807F52",
"k  c #B86F4C",
"l  c #E25046",
"z  c #D47F44",
"x  c #CE6355",
"c  c #E76050",
"v  c #E66C5E",
"b  c #E76C60",
"n  c #F57768",
"m  c #86822B",
"M  c #88822B",
"N  c #858432",
"B  c #898737",
"V  c #918B37",
"C  c #938A39",
"Z  c #CF9B23",
"A  c #E68638",
"S  c #E5833E",
"D  c #EFC73F",
"F  c #8A8A41",
"G  c #838E4B",
"H  c #938F45",
"J  c #97944B",
"K  c #858351",
"L  c #9D9C5A",
"P  c #B38B56",
"I  c #A89754",
"U  c #AB915A",
"Y  c #AF9E5A",
"T  c #9A9A6B",
"R  c #B69B64",
"E  c #ADAA67",
"W  c #B2B073",
"Q  c #DC8242",
"!  c #D98C53",
"~  c #D69A5F",
"^  c #E68B44",
"/  c #E78748",
"(  c #E78E49",
")  c #EC8C4A",
"_  c #E8995E",
"`  c #F29656",
"'  c #F9BC4B",
"]  c #EC8367",
"[  c #E19061",
"{  c #EF8770",
"}  c #F08771",
"|  c #F29C7D",
" . c #DDA378",
".. c #ECA269",
"X. c #EFA86F",
"o. c #F1A66C",
"O. c #E4AB7B",
"+. c #F5AB72",
"@. c #EEB47E",
"#. c #FFB676",
"$. c #F5B17C",
"%. c #F0C141",
"&. c #F8D849",
"*. c #FECF51",
"=. c #899E87",
"-. c #B58980",
";. c #BDBB8D",
":. c #BCBD99",
">. c #A8B9AB",
",. c #BDBDA1",
"<. c #F1968D",
"1. c #C0BF9A",
"2. c #E4A380",
"3. c #E6B383",
"4. c #E8B586",
"5. c #EABA8B",
"6. c #F3A89D",
"7. c #FFA999",
"8. c #EEB891",
"9. c #EEB599",
"0. c #F0B793",
"q. c #F2BC93",
"w. c #F2B8A5",
"e. c #EFBAB6",
"r. c #F3C093",
"t. c #F4C398",
"y. c #F2CC9D",
"u. c #D1CFA5",
"i. c #D7D6AE",
"p. c #DAD9B6",
"a. c #F2C6A5",
"s. c #F3CEA4",
"d. c #FACEA8",
"f. c #F5D1A6",
"g. c #FBD0A6",
"h. c #F4D1A9",
"j. c #EECDB0",
"k. c #F4C1B8",
"l. c #E8D3B7",
"z. c #EBD7BE",
"x. c #F3D5B3",
"c. c #F7D9B5",
"v. c #F1D7B9",
"b. c #F4DABC",
"n. c #BCDBE8",
"m. c #DCC4C0",
"M. c #FFCBC5",
"N. c #FDCCCD",
"B. c #F2D1CF",
"V. c #F6DBD1",
"C. c #F9DDDA",
"Z. c #E3E3CE",
"A. c #F7E1C7",
"S. c #FAE3C4",
"D. c #C8E7F2",
"F. c #D1E9F1",
"G. c #F8E1E0",
"H. c #F7F6E5",
"J. c #FDFBF4",
/* pixels */
"                    M.# # # # # # # # # # # t B.                ",
"                e.l @ @ @ @ @ @ @ @ @ @ @ @ @ & x m.            ",
"      7.# # # # # # @ @ @ @ @ @ @ @ @ @ @ @ @ @ @ n             ",
"      k.r % % % % % % % % % % % % % $ @ @ @ @ @ @ @ <.          ",
"        G.C.C.C.w.0.V.C.V.a.0.0.0.8./ d s s s s s s [           ",
"              b.h.h.D.F.J.S.h.h.h.h...g f f f f f f f O.        ",
"      A.S.c.h.h.h.h.n.n.J.S.h.h.h.h.h.5.4.@.f ^ 4.4._ f `       ",
"      h.h.h.h.h.s.s.l.J.H.h.h.h.h.h.h.s.s.y.f ( h.f.o.f x.      ",
"  v.x.h.h.h.h.f.! p O.h.h.h.h.h.h.h.@.Q p f f ( h.f.X.f Q       ",
"z.h.h.h.h.h.h.g.) f z h.h.h.h.h.h.h.~ g f f f ( f.$.S f a.      ",
"    V.f f f f f f f f f S 3.h.h.h.h.h.h.h.h.f.q.f f f f g       ",
"      9.g S o.) f +.#.f ^ y.h.h.h.h.h.h.h.h.h.r.a  .+...j.      ",
"            h.h.h.h.f.h.h.h.h.h.h.h.h.h.h.h.h.b.                ",
"            b.h.f.h.h.h.h.h.h.h.h.h.h.h.h.h.v.                  ",
"              =.O o h t y 1 C C C C q r 0 C C H J ,.            ",
"          >.X m m m M # 6 m m m m m m 6 ; m m m m N :.          ",
"        p.G . m m m m # 6 m m m m m m 6 ; m m m m m J u.        ",
"      i.m m m m m m m # 6 : m m m m : 6 ; m m m m m m m B Z.    ",
"    ;.E m m m m m m - @ $ 9 * - - - 7 @ 5 * m m m m m m m W 1.  ",
"  V m m m m m m m 4 # $ % @ @ @ @ @ @ # # @ = m m m m m m m m F ",
"  U U U U I V : 4 @ 2 &.%.8 @ @ @ @ 3 D Z @ $ 9 m C I U U U U U ",
"  h.h.h.h.f.Y > 7 # + *.' w @ @ @ @ e ' A @ @ 6 m R h.h.h.h.h.h.",
"  h.h.h.h.h.h.t.i @ @ @ # @ @ @ @ @ @ @ @ @ @ i t.h.h.h.h.h.h.h.",
"  h.h.h.h.d.| u # @ @ @ @ @ @ @ @ @ @ @ @ @ # # y 2.h.h.h.h.h.h.",
"  h.h.h.h.] @ # @ @ @ @ @ @ @ @ @ @ @ @ @ @ @ @ # # ] h.h.h.h.h.",
"  x.h.h.c.} # @ @ @ @ @ @ @ # # # # # @ @ @ @ @ # # { c.h.h.h.A.",
"          <.@ @ @ @ @ @ @ c N.N.N.N.v & @ @ @ @ @ @ <.          ",
"          <.@ # # # @ @ b             -.r # # # # @ <.          ",
"        ;.P < < < , k w.                B.6.< < < < P           ",
"      F m m m m m m T                       m m m m m m F       ",
"    M m m m m m m m K                       m m m m m m m B     ",
"L N m m m m m m m m j                       m m m m m m m m J L "
};
