/* XPM */
static char *_f2bde4c0e7b427282ef876a7128dc87[] = {
/* columns rows colors chars-per-pixel */
"32 32 143 2 ",
"   c #101615",
".  c #131917",
"X  c #141B1C",
"o  c #191F1F",
"O  c #161F21",
"+  c #172121",
"@  c #1A2424",
"#  c #1D2728",
"$  c #1E292A",
"%  c #222D2D",
"&  c #25302F",
"*  c #2D372F",
"=  c #242F32",
"-  c #263334",
";  c #2B3533",
":  c #2F3932",
">  c #283638",
",  c #2D393A",
"<  c #343D35",
"1  c #323E3C",
"2  c #35413C",
"3  c #39443D",
"4  c #2D3D41",
"5  c #323F41",
"6  c #354243",
"7  c #3A4543",
"8  c #3D4944",
"9  c #374749",
"0  c #3C4A4B",
"q  c #3D4E52",
"w  c #434E46",
"e  c #414D4C",
"r  c #465047",
"t  c #485043",
"y  c #44504D",
"u  c #4B554C",
"i  c #4F594F",
"p  c #505A4E",
"a  c #414E51",
"s  c #455253",
"d  c #4A5554",
"f  c #4E5954",
"g  c #44555A",
"h  c #495759",
"j  c #4D5B5C",
"k  c #525D52",
"l  c #515E5C",
"z  c #55615C",
"x  c #5A655E",
"c  c #5D685F",
"v  c #666A5E",
"b  c #4D5D61",
"n  c #515F61",
"m  c #546264",
"M  c #596664",
"N  c #5E6963",
"B  c #55666A",
"V  c #596769",
"C  c #56686B",
"Z  c #5C6B6C",
"A  c #576770",
"S  c #566970",
"D  c #5C6D72",
"F  c #5E7175",
"G  c #5E7178",
"H  c #616D65",
"J  c #626E6C",
"K  c #677067",
"L  c #6A7465",
"P  c #65716D",
"I  c #6B756B",
"U  c #606F71",
"Y  c #637274",
"T  c #697674",
"R  c #6D7975",
"E  c #64757A",
"W  c #687679",
"Q  c #66797C",
"!  c #6C7B7C",
"~  c #747D72",
"^  c #727E7D",
"/  c #758076",
"(  c #74817E",
")  c #78847D",
"_  c #7C897F",
"`  c #677A81",
"'  c #6C7D82",
"]  c #707F82",
"[  c #6E8186",
"{  c #6E838A",
"}  c #738384",
"|  c #788485",
" . c #7C8A85",
".. c #728489",
"X. c #768789",
"o. c #75878D",
"O. c #78878B",
"+. c #76898B",
"@. c #76888E",
"#. c #7B8A8C",
"$. c #7A8B8F",
"%. c #7D8B8F",
"&. c #738791",
"*. c #778A91",
"=. c #7D8E92",
"-. c #7F8F92",
";. c #788D95",
":. c #7D8F94",
">. c #7D9197",
",. c #7E929B",
"<. c #808C87",
"1. c #818F8B",
"2. c #839084",
"3. c #84928F",
"4. c #808F93",
"5. c #829091",
"6. c #819397",
"7. c #859497",
"8. c #8B9692",
"9. c #8C9893",
"0. c #879699",
"q. c #85979C",
"w. c #87989B",
"e. c #89989B",
"r. c #899A9C",
"t. c #8C9B9D",
"y. c #939C92",
"u. c #939F9A",
"i. c #92A19E",
"p. c #8B9EA0",
"a. c #8FA0A1",
"s. c #8FA0A4",
"d. c #96A2A2",
"f. c #90A1A6",
"g. c #94A4A7",
"h. c #9BA6A0",
"j. c #92A5AA",
"k. c #9AAAAC",
"l. c #9EAFB0",
"z. c #9FB0B4",
"x. c #A1AFAF",
"c. c #A9B7B3",
"v. c #B1C1C4",
/* pixels */
"6.X.W B g q , q s n h m V E D ! ' Y V 0 l E D ..Y E D F Z ! } #.",
"6.@.C E g g = g b B m V h Z ! ! m V j D C m ' { ! U d Y Y o.:.%.",
"@.O.Z Q j j # 5 d m m Y V Z D Y Z D Y g l M J } ..#.! C ! R >.,.",
"` E m l C Z X 4 0 q s Z R Y | Z e Y E 1 n F D W | 5.| +.| ! o...",
"E E b C Z j O ; ; 7 j D V Y n m Y m 1 - n Z D #.} #.;.} | ! %.! ",
"D m Z Y 7 d + , 7 1 6 a j l m m m 6 0 , e D E &.*.[ } ! Y ! } X.",
"D W Z Y s s + . d s M 0 , # $ , - - - $ ' o.[ 6.` s q W Z E V C ",
"E ! d.x.5.( ( <.| ^ 7.| 6.9 0.Y i.e.#.s.f.t.7.k.0.e.0.e.r.=.} } ",
"D E J Y j f k k k d m D Z , j j s a 0 j m D Z m C B B m m m D 6.",
"Y m j j e w t p k l V m W % C 6 Y Z m m Z s U V s a d Y m Z m } ",
"V m f l s d r r z P ! W Q > Z j #.` E M m m m V V h m m C m Z #.",
"Z M l e e % P y ! y j m , s $ 7 % % % = s + - $ % $ $ - , ; 6 %.",
"V Z m m e h m z 8.2 3 8 1 1 1 1 2 7 7 0 Y Q Z E m Z [ | [ ! } ! ",
"M M Z y y 1 x l 1.8 w 8 7 s j y 7 1 d 0 j C E D V E ! m ..#.} ( ",
"E Y V s z i c z w 8 m e m j m C d h m 0 l Z C C m Z E B Y E } ! ",
"! W Z m M m H K 2 3 y ; d m m m m y e 0 Y V V W D S V m Y } R ' ",
"' d R ( Y Y K / 3 * 1 7 % d e d s j z e  .J Z Y E E m V V C E Y ",
"X.%.5.3.5. .c.h.y. .9.8.u.1.. ( 1.! ) l f l j m Z Z #.} X.f.=.X.",
"! ` #.3.| T / 2.) / I ~ ( N   ; : : 3 3 < 2 & s e l C X.v.Z E Q ",
"' ! } T ^ c I _ L v ~ I ~ N   ; < < w 3 3 8 e d l Z B ' k.Y D ! ",
"W W J } P N N N K H k I P H . ; < < u u k r z l T Z Z ! k.F E X.",
"A B W W V 7 M H K x H x P P   2 < 3 i i r M Z J } Y } | l.E G ! ",
"m C Z W Z ! Y R T x M P Y Y o 3 3 w i i f c Y R R ! Q D j.S ` C ",
"h C E Z Y |  .W M m Z M W ! + 7 e x i H H d M M ( Y D Y p.C F M ",
"P Z D J  .} ! P Z Z C l Z Z + s j l f z u x z J Z Z S ! g.Z Y V ",
"M Z Z } } =.R m C m R Z F C # s j l l u d ; Y m s Y Z Y 6.D j Z ",
"b M d l W Y ' Q Y M j l j b @ y l m M m - l l j j C Z Y a.V m j ",
"b C j 7 e m Z ; m Y Z Y Z D X - - , > 4 9 D Z s d V C > m g Z m ",
"W F Y m j } + j V | ] Y 6.=.e.4.0.w.z.q.r.q.j.j.q.X.} W ' E r.#.",
"V Z d d 6 6 + 2 1 0 0 j e s b b V V C - [ Q ` ` V ! Y m j j n m ",
"m m J m d j - 0 q D j D m V R U U C Z 5 Z Q M ' *.[ Y m m C D d ",
"Y ! ] V j m 4 s 6 a b Z m G W Y ! m J 5 Z E } Q B R Y m B m [ Y "
};
